<mxfile host="app.diagrams.net" modified="2021-10-20T09:10:09.303Z" agent="5.0 (Windows NT 10.0; Win64; x64) AppleWebKit/537.36 (KHTML, like Gecko) Chrome/94.0.4606.81 Safari/537.36 Edg/94.0.992.50" etag="2kjoqNbCFI-V5QZ6SpRj" version="15.5.6" type="github">
  <diagram id="pxabAqVZTSK6ULjw3f69" name="Page-1">
    <mxGraphModel dx="1038" dy="617" grid="1" gridSize="10" guides="1" tooltips="1" connect="1" arrows="1" fold="1" page="1" pageScale="1" pageWidth="850" pageHeight="1100" math="0" shadow="0">
      <root>
        <mxCell id="0" />
        <mxCell id="1" parent="0" />
        <mxCell id="DxGOHSrBXWISHsCiuMgw-1" value="S&lt;br&gt;0+10=10" style="ellipse;whiteSpace=wrap;html=1;aspect=fixed;fontColor=#FFFFFF;fillColor=#FF0000;" vertex="1" parent="1">
          <mxGeometry x="370" y="70" width="60" height="60" as="geometry" />
        </mxCell>
        <mxCell id="DxGOHSrBXWISHsCiuMgw-2" value="" style="endArrow=classic;html=1;rounded=0;exitX=0;exitY=1;exitDx=0;exitDy=0;entryX=0.62;entryY=0.013;entryDx=0;entryDy=0;entryPerimeter=0;" edge="1" parent="1" source="DxGOHSrBXWISHsCiuMgw-1" target="DxGOHSrBXWISHsCiuMgw-5">
          <mxGeometry width="50" height="50" relative="1" as="geometry">
            <mxPoint x="370" y="130" as="sourcePoint" />
            <mxPoint x="320" y="180" as="targetPoint" />
          </mxGeometry>
        </mxCell>
        <mxCell id="DxGOHSrBXWISHsCiuMgw-3" value="" style="endArrow=classic;html=1;rounded=0;exitX=0.5;exitY=1;exitDx=0;exitDy=0;entryX=0.5;entryY=0;entryDx=0;entryDy=0;" edge="1" parent="1" source="DxGOHSrBXWISHsCiuMgw-1" target="DxGOHSrBXWISHsCiuMgw-6">
          <mxGeometry width="50" height="50" relative="1" as="geometry">
            <mxPoint x="420" y="160" as="sourcePoint" />
            <mxPoint x="400" y="200" as="targetPoint" />
          </mxGeometry>
        </mxCell>
        <mxCell id="DxGOHSrBXWISHsCiuMgw-4" value="" style="endArrow=classic;html=1;rounded=0;exitX=1;exitY=1;exitDx=0;exitDy=0;entryX=0.333;entryY=0.067;entryDx=0;entryDy=0;entryPerimeter=0;" edge="1" parent="1" source="DxGOHSrBXWISHsCiuMgw-1" target="DxGOHSrBXWISHsCiuMgw-7">
          <mxGeometry width="50" height="50" relative="1" as="geometry">
            <mxPoint x="450" y="290" as="sourcePoint" />
            <mxPoint x="470" y="180" as="targetPoint" />
          </mxGeometry>
        </mxCell>
        <mxCell id="DxGOHSrBXWISHsCiuMgw-5" value="A&lt;br&gt;1+8=9" style="ellipse;whiteSpace=wrap;html=1;aspect=fixed;" vertex="1" parent="1">
          <mxGeometry x="280" y="180" width="60" height="60" as="geometry" />
        </mxCell>
        <mxCell id="DxGOHSrBXWISHsCiuMgw-6" value="B&lt;br&gt;2+5=7" style="ellipse;whiteSpace=wrap;html=1;aspect=fixed;fillColor=#FFFF00;" vertex="1" parent="1">
          <mxGeometry x="370" y="180" width="60" height="60" as="geometry" />
        </mxCell>
        <mxCell id="DxGOHSrBXWISHsCiuMgw-7" value="C&lt;br&gt;1+5=6" style="ellipse;whiteSpace=wrap;html=1;aspect=fixed;fillColor=#FFFF00;" vertex="1" parent="1">
          <mxGeometry x="470" y="180" width="60" height="60" as="geometry" />
        </mxCell>
        <mxCell id="DxGOHSrBXWISHsCiuMgw-8" value="" style="endArrow=classic;html=1;rounded=0;exitX=0.5;exitY=1;exitDx=0;exitDy=0;entryX=0.5;entryY=0;entryDx=0;entryDy=0;" edge="1" parent="1" source="DxGOHSrBXWISHsCiuMgw-7" target="DxGOHSrBXWISHsCiuMgw-9">
          <mxGeometry width="50" height="50" relative="1" as="geometry">
            <mxPoint x="450" y="260" as="sourcePoint" />
            <mxPoint x="490" y="300" as="targetPoint" />
          </mxGeometry>
        </mxCell>
        <mxCell id="DxGOHSrBXWISHsCiuMgw-9" value="G&lt;br&gt;9+0=9" style="ellipse;whiteSpace=wrap;html=1;aspect=fixed;" vertex="1" parent="1">
          <mxGeometry x="500" y="300" width="60" height="60" as="geometry" />
        </mxCell>
        <mxCell id="DxGOHSrBXWISHsCiuMgw-10" value="" style="endArrow=classic;html=1;rounded=0;exitX=0;exitY=1;exitDx=0;exitDy=0;entryX=0.62;entryY=0;entryDx=0;entryDy=0;entryPerimeter=0;" edge="1" parent="1" source="DxGOHSrBXWISHsCiuMgw-6" target="DxGOHSrBXWISHsCiuMgw-11">
          <mxGeometry width="50" height="50" relative="1" as="geometry">
            <mxPoint x="450" y="260" as="sourcePoint" />
            <mxPoint x="360" y="300" as="targetPoint" />
          </mxGeometry>
        </mxCell>
        <mxCell id="DxGOHSrBXWISHsCiuMgw-11" value="D&lt;br&gt;4+4=8" style="ellipse;whiteSpace=wrap;html=1;aspect=fixed;" vertex="1" parent="1">
          <mxGeometry x="320" y="300" width="60" height="60" as="geometry" />
        </mxCell>
        <mxCell id="DxGOHSrBXWISHsCiuMgw-12" value="" style="endArrow=classic;html=1;rounded=0;entryX=0.4;entryY=-0.04;entryDx=0;entryDy=0;entryPerimeter=0;" edge="1" parent="1" target="DxGOHSrBXWISHsCiuMgw-13">
          <mxGeometry width="50" height="50" relative="1" as="geometry">
            <mxPoint x="410" y="240" as="sourcePoint" />
            <mxPoint x="430" y="300" as="targetPoint" />
          </mxGeometry>
        </mxCell>
        <mxCell id="DxGOHSrBXWISHsCiuMgw-13" value="E&lt;br&gt;5+2=7" style="ellipse;whiteSpace=wrap;html=1;aspect=fixed;fillColor=#FFFF00;" vertex="1" parent="1">
          <mxGeometry x="410" y="300" width="60" height="60" as="geometry" />
        </mxCell>
        <mxCell id="DxGOHSrBXWISHsCiuMgw-14" value="" style="endArrow=classic;html=1;rounded=0;exitX=0.5;exitY=1;exitDx=0;exitDy=0;entryX=0.5;entryY=0;entryDx=0;entryDy=0;entryPerimeter=0;" edge="1" parent="1" source="DxGOHSrBXWISHsCiuMgw-13" target="DxGOHSrBXWISHsCiuMgw-15">
          <mxGeometry width="50" height="50" relative="1" as="geometry">
            <mxPoint x="490" y="380" as="sourcePoint" />
            <mxPoint x="440" y="430" as="targetPoint" />
          </mxGeometry>
        </mxCell>
        <mxCell id="DxGOHSrBXWISHsCiuMgw-15" value="G&lt;br&gt;6+0=6" style="ellipse;whiteSpace=wrap;html=1;aspect=fixed;fontColor=#FFFFFF;fillColor=#006600;" vertex="1" parent="1">
          <mxGeometry x="410" y="430" width="60" height="60" as="geometry" />
        </mxCell>
        <mxCell id="DxGOHSrBXWISHsCiuMgw-16" value="&lt;font color=&quot;#330000&quot;&gt;1&lt;/font&gt;" style="text;html=1;align=center;verticalAlign=middle;resizable=0;points=[];autosize=1;strokeColor=none;fillColor=none;fontColor=#FFFFFF;" vertex="1" parent="1">
          <mxGeometry x="320" y="140" width="20" height="20" as="geometry" />
        </mxCell>
        <mxCell id="DxGOHSrBXWISHsCiuMgw-17" value="2" style="text;html=1;align=center;verticalAlign=middle;resizable=0;points=[];autosize=1;strokeColor=none;fillColor=none;fontColor=#330000;" vertex="1" parent="1">
          <mxGeometry x="380" y="140" width="20" height="20" as="geometry" />
        </mxCell>
        <mxCell id="DxGOHSrBXWISHsCiuMgw-18" value="1" style="text;html=1;align=center;verticalAlign=middle;resizable=0;points=[];autosize=1;strokeColor=none;fillColor=none;fontColor=#330000;" vertex="1" parent="1">
          <mxGeometry x="420" y="140" width="20" height="20" as="geometry" />
        </mxCell>
        <mxCell id="DxGOHSrBXWISHsCiuMgw-19" value="3" style="text;html=1;align=center;verticalAlign=middle;resizable=0;points=[];autosize=1;strokeColor=none;fillColor=none;fontColor=#330000;" vertex="1" parent="1">
          <mxGeometry x="400" y="260" width="20" height="20" as="geometry" />
        </mxCell>
        <mxCell id="DxGOHSrBXWISHsCiuMgw-20" value="2" style="text;html=1;align=center;verticalAlign=middle;resizable=0;points=[];autosize=1;strokeColor=none;fillColor=none;fontColor=#330000;" vertex="1" parent="1">
          <mxGeometry x="350" y="250" width="20" height="20" as="geometry" />
        </mxCell>
        <mxCell id="DxGOHSrBXWISHsCiuMgw-21" value="8" style="text;html=1;align=center;verticalAlign=middle;resizable=0;points=[];autosize=1;strokeColor=none;fillColor=none;fontColor=#330000;" vertex="1" parent="1">
          <mxGeometry x="490" y="260" width="20" height="20" as="geometry" />
        </mxCell>
        <mxCell id="DxGOHSrBXWISHsCiuMgw-22" value="1" style="text;html=1;align=center;verticalAlign=middle;resizable=0;points=[];autosize=1;strokeColor=none;fillColor=none;fontColor=#330000;" vertex="1" parent="1">
          <mxGeometry x="420" y="380" width="20" height="20" as="geometry" />
        </mxCell>
        <mxCell id="DxGOHSrBXWISHsCiuMgw-23" value="1st" style="text;html=1;align=center;verticalAlign=middle;resizable=0;points=[];autosize=1;strokeColor=none;fillColor=none;fontColor=#330000;" vertex="1" parent="1">
          <mxGeometry x="340" y="90" width="30" height="20" as="geometry" />
        </mxCell>
        <mxCell id="DxGOHSrBXWISHsCiuMgw-24" value="2nd" style="text;html=1;align=center;verticalAlign=middle;resizable=0;points=[];autosize=1;strokeColor=none;fillColor=none;fontColor=#330000;" vertex="1" parent="1">
          <mxGeometry x="440" y="200" width="40" height="20" as="geometry" />
        </mxCell>
        <mxCell id="DxGOHSrBXWISHsCiuMgw-25" value="3rd" style="text;html=1;align=center;verticalAlign=middle;resizable=0;points=[];autosize=1;strokeColor=none;fillColor=none;fontColor=#330000;" vertex="1" parent="1">
          <mxGeometry x="345" y="200" width="30" height="20" as="geometry" />
        </mxCell>
        <mxCell id="DxGOHSrBXWISHsCiuMgw-26" value="4th" style="text;html=1;align=center;verticalAlign=middle;resizable=0;points=[];autosize=1;strokeColor=none;fillColor=none;fontColor=#330000;" vertex="1" parent="1">
          <mxGeometry x="385" y="320" width="30" height="20" as="geometry" />
        </mxCell>
        <mxCell id="DxGOHSrBXWISHsCiuMgw-27" value="5th" style="text;html=1;align=center;verticalAlign=middle;resizable=0;points=[];autosize=1;strokeColor=none;fillColor=none;fontColor=#330000;" vertex="1" parent="1">
          <mxGeometry x="380" y="450" width="30" height="20" as="geometry" />
        </mxCell>
        <mxCell id="DxGOHSrBXWISHsCiuMgw-28" value="&lt;font color=&quot;#0000ff&quot;&gt;The expanded nodes are colored&lt;/font&gt;&lt;br&gt;&lt;font color=&quot;#3399ff&quot;&gt;Each node contains the calculation in the following manner:&lt;/font&gt;&lt;br&gt;&lt;font color=&quot;#3399ff&quot;&gt;actual path cost from source g(n) + heuristic value for that node h(n) = f(n)&lt;/font&gt;&lt;br&gt;&lt;font color=&quot;#ff0080&quot;&gt;The order they were expanded is on the left side of each node.&amp;nbsp;&amp;nbsp;&lt;/font&gt;" style="text;html=1;align=center;verticalAlign=middle;resizable=0;points=[];autosize=1;strokeColor=none;fillColor=none;fontColor=#330000;" vertex="1" parent="1">
          <mxGeometry x="540" y="230" width="410" height="60" as="geometry" />
        </mxCell>
      </root>
    </mxGraphModel>
  </diagram>
</mxfile>
